<svg width="700" height="700" xmlns="http://www.w3.org/2000/svg" xml:space="preserve" version="1.1">

 <g>
  <title>Layer 1</title>
  <g id="svg_11">
   <g id="svg_12">
    <path id="svg_13" fill="#EC1654" d="m515.67494,192.37c8.21,0 12.01,-6.05 8.45,-13.44l-33.93,-70.48c-3.56,-7.39 -13.19,-13.44 -21.39,-13.44l-241.08,0c-8.21,0 -17.84,6.05 -21.4,13.44l-33.96,70.49c-3.56,7.39 0.24,13.44 8.44,13.44l334.87,0l0,-0.01z" class="st1"/>
   </g>
   <g id="svg_14">
    <path id="svg_15" fill="#EC1654" d="m678.25494,192.37c8.21,0 10.53,-5.08 5.16,-11.28l-64.72,-74.8c-5.37,-6.21 -16.48,-11.28 -24.68,-11.28l-63.05,0c-8.21,0 -12,6.05 -8.44,13.44l34,70.49c3.57,7.39 13.2,13.44 21.4,13.44l100.33,0l0,-0.01z" class="st1"/>
   </g>
   <g id="svg_16">
    <path id="svg_17" fill="#EC1654" d="m170.51494,108.44c3.57,-7.39 -0.23,-13.44 -8.44,-13.44l-63.1,0c-8.21,0 -19.31,5.08 -24.68,11.28l-64.73,74.8c-5.37,6.21 -3.05,11.28 5.16,11.28l100.39,0c8.21,0 17.84,-6.05 21.4,-13.44l34,-70.48z" class="st1"/>
   </g>
   <g id="svg_18">
    <path id="svg_19" fill="#EC1654" d="m14.18494,219.73c-8.21,0 -10.66,5.19 -5.44,11.52l275.77,335.31c5.21,6.34 6.68,5.42 3.27,-2.04l-151.64,-331.22c-3.42,-7.46 -12.93,-13.57 -21.13,-13.57l-100.83,0z" class="st1"/>
   </g>
   <g id="svg_20">
    <path id="svg_21" fill="#EC1654" d="m578.03494,219.73c-8.21,0 -17.72,6.1 -21.14,13.57l-151.72,331.22c-3.42,7.46 -1.95,8.38 3.27,2.04l275.84,-335.31c5.21,-6.34 2.77,-11.52 -5.44,-11.52l-100.81,0z" class="st1"/>
   </g>
   <g id="svg_22">
    <path id="svg_23" fill="#EC1654" d="m354.05494,330.91c-7.89,-2.27 -7.93,-6.13 -0.1,-8.58l137.47,-43.01c7.83,-2.45 17.04,-10.56 20.45,-18.02l12.83,-28c3.42,-7.46 -0.5,-13.57 -8.71,-13.57l-335.43,0c-8.21,0 -12.13,6.1 -8.71,13.57l56.18,122.66c3.42,7.46 12.75,15.09 20.74,16.96l132.97,31.08c7.99,1.87 8.62,6.58 1.39,10.47l-89.79,48.34c-7.23,3.89 -10.34,13.18 -6.92,20.64l55.63,121.47c3.42,7.46 9.01,7.46 12.43,0l104.64,-228.45c3.42,-7.46 -0.24,-15.42 -8.13,-17.69l-96.94,-27.87z" class="st1"/>
   </g>
  </g>
 </g>
</svg>