<svg width="965" height="168" xmlns="http://www.w3.org/2000/svg" version="1.1" xml:space="preserve">
 <g>
  <title>Layer 1</title>
  <g id="svg_1">
   <g id="svg_2">
    <g id="svg_3">
     <path id="svg_4" class="st1" d="m242.07307,89.32c3.62,-3.84 9.07,-5.79 16.2,-5.79l9.95,0l3.84,-18.23l-17.84,0c-6.7,0 -12.63,0.45 -17.64,1.33c-4.91,0.87 -9.19,2.49 -12.74,4.84c-3.52,2.33 -6.49,5.6 -8.83,9.71c-2.38,4.16 -4.27,9.59 -5.64,16.15l0,0l-9.58,45.02l26.88,0l7.89,-36.83c1.44,-7 3.97,-12.45 7.51,-16.2z" fill="#EC1654"/>
     <path id="svg_5" class="st1" d="m273.61307,120.62c0,6.79 2.17,11.98 6.63,15.87c4.44,3.88 10.48,5.85 17.94,5.85l38.11,0c5.01,0 9.15,-1.18 12.32,-3.51c3.13,-2.31 5.34,-6.35 6.57,-12.02l13.04,-61.51l-26.88,0l-11.04,51.83c-0.57,2.6 -1.44,4.37 -2.66,5.41c-1.24,1.06 -3.12,1.57 -5.75,1.57l-4.8,0c-5.11,0 -8.78,-0.83 -11.21,-2.55c-2.54,-1.78 -3.82,-4.77 -3.82,-8.88c0,-0.97 0.08,-2.02 0.24,-3.1c0.15,-1.06 0.33,-2.19 0.53,-3.4l8.69,-40.87l-26.88,0l-10.3,48.53c-0.49,2.19 -0.73,4.47 -0.73,6.78z" fill="#EC1654"/>
     <path id="svg_6" class="st1" d="m368.57307,131.12c0,3.21 0.97,5.84 2.98,8.02c1.95,2.12 5.02,3.2 9.14,3.2l35.11,0c6.95,0 12.83,-0.76 17.47,-2.26c4.59,-1.48 8.44,-3.73 11.44,-6.68c3.01,-2.96 5.41,-6.7 7.14,-11.12c1.76,-4.5 3.2,-9.77 4.28,-15.68c0.49,-2.37 0.81,-4.66 0.96,-6.84c0.15,-2.21 0.22,-4.38 0.22,-6.44c0,-4.16 -0.54,-8 -1.59,-11.41c-1.04,-3.37 -2.67,-6.32 -4.85,-8.78c-2.17,-2.44 -5.01,-4.38 -8.46,-5.75c-3.49,-1.39 -7.75,-2.09 -12.67,-2.09l-20.72,0l5.4,-25.5l-26.88,0l-18.54,87.53c-0.28,1.32 -0.43,2.59 -0.43,3.8zm29.96,-16.29l0,-0.01l6.51,-30.99l14.51,0c3.86,0 6.54,1.27 7.97,3.77c1.3,2.28 1.96,4.96 1.96,7.96c0,1.43 -0.1,3 -0.31,4.65c-0.2,1.61 -0.4,3.08 -0.61,4.39c-0.52,2.51 -1.17,4.88 -1.93,7.11c-0.79,2.31 -1.83,4.36 -3.1,6.1c-1.31,1.8 -2.99,3.26 -4.99,4.34c-2.03,1.09 -4.57,1.65 -7.56,1.65l-5.4,0c-2.54,0 -4.34,-0.32 -5.5,-0.99c-0.93,-0.54 -2.04,-1.69 -2.04,-4.14c0.02,-0.99 0.17,-2.25 0.49,-3.84z" fill="#EC1654"/>
     <polygon id="svg_7" class="st1" points="533.6830825805664,65.30000305175781 501.95304107666016,119.99000549316406 490.71305084228516,65.30000305175781 464.8030776977539,65.30000305175781 484.8030776977539,143.8300018310547 467.1330337524414,167.99000549316406 494.94303131103516,167.99000549316406 561.6030654907227,65.30000305175781 " fill="#EC1654"/>
     <path id="svg_8" class="st1" d="m589.97307,65.3c-7.2,0 -12.75,1.43 -16.51,4.25c-3.74,2.8 -6.41,7.86 -7.93,15.02c-0.48,2.39 -0.73,4.43 -0.73,6.04c0,2.45 0.33,4.6 0.98,6.41c0.63,1.77 1.6,3.34 2.87,4.66c1.32,1.36 2.96,2.6 4.89,3.68c1.98,1.11 4.32,2.17 6.95,3.15l14.56,5.55c0.79,0.29 1.7,0.61 2.73,0.96c1.08,0.36 2.11,0.75 3.08,1.15c1.06,0.45 1.98,1 2.72,1.62c0.94,0.81 1.41,1.7 1.41,2.67c0,1.36 -0.71,2.34 -1.95,2.69c-0.79,0.23 -1.51,0.35 -2.13,0.35l-49.19,0l-11.47,18.83l68.16,0c3.6,0 6.83,-0.29 9.57,-0.88c2.66,-0.56 4.97,-1.55 6.88,-2.94c1.89,-1.38 3.48,-3.26 4.74,-5.59c1.29,-2.38 2.33,-5.44 3.11,-9.12c0.48,-2.41 0.73,-4.44 0.73,-6.05c0,-2.82 -0.42,-5.23 -1.25,-7.16c-0.83,-1.94 -2.03,-3.67 -3.55,-5.15c-1.55,-1.5 -3.47,-2.85 -5.7,-3.99c-2.32,-1.18 -4.94,-2.38 -7.79,-3.56l-17.24,-6.74c-2.26,-0.89 -3.94,-1.5 -5.02,-1.85c-1.62,-0.51 -2.51,-1.7 -2.51,-3.35c0,-0.87 0.47,-1.6 1.29,-2.01c0.51,-0.26 1.14,-0.44 1.85,-0.56c0.67,-0.11 1.31,-0.17 1.93,-0.17l43.48,0l3.82,-17.93l-52.78,0l0,0.02z" fill="#EC1654"/>
     <path id="svg_9" class="st1" d="m714.74307,96.49c0.05,0.48 0.12,1 0.22,1.57l3.01,34.76c0.09,1.27 0.41,2.55 0.96,3.82c0.52,1.21 1.4,2.31 2.63,3.26c1.26,0.99 3.01,1.8 5.19,2.41c2.24,0.62 5.13,0.93 8.6,0.93c3.55,0 6.55,-0.38 8.93,-1.14c2.34,-0.75 4.38,-1.81 6.05,-3.16c1.69,-1.36 3.14,-2.96 4.32,-4.74c1.21,-1.84 2.37,-3.91 3.44,-6.16l30.93,-62.74l-26.34,0l-21.42,45.05c-0.19,0.49 -0.5,1.09 -0.89,1.7c-0.74,1.16 -1.59,1.4 -2.17,1.4c-0.79,0 -1.72,-0.48 -1.97,-1.84c-0.12,-0.63 -0.17,-1.18 -0.17,-1.64l-3.6,-38.29c-0.08,-0.75 -0.3,-1.55 -0.66,-2.42c-0.31,-0.73 -0.96,-1.47 -1.92,-2.18c-1.02,-0.75 -2.48,-1.4 -4.32,-1.9c-1.9,-0.52 -4.41,-0.78 -7.47,-0.78c-3.07,0 -5.64,0.27 -7.64,0.79c-1.96,0.51 -3.59,1.17 -4.83,1.95c-1.22,0.77 -2.17,1.58 -2.84,2.42c-0.68,0.87 -1.21,1.71 -1.57,2.51l-19.83,38.47c-0.2,0.4 -0.46,0.88 -0.76,1.45c-0.66,1.21 -1.53,1.47 -2.14,1.47c-0.36,0 -1.58,-0.13 -2.02,-1.74c-0.17,-0.64 -0.27,-1.27 -0.27,-1.87l-2.19,-44.55l-24.2,0l4.41,63.19c0.09,2.21 0.41,4.24 0.93,6.05c0.49,1.71 1.34,3.24 2.51,4.54c1.15,1.29 2.8,2.31 4.89,3.03c2.16,0.75 5.06,1.13 8.6,1.13c3.47,0 6.44,-0.32 8.84,-0.94c2.37,-0.61 4.37,-1.45 5.94,-2.47c1.57,-1.02 2.85,-2.18 3.8,-3.45c1.01,-1.34 1.85,-2.69 2.51,-4.01l18.83,-36.31c0.58,-1.18 1.37,-1.43 1.93,-1.43c0.76,0 1.61,0.49 1.75,1.86z" fill="#EC1654"/>
     <path id="svg_10" class="st1" d="m782.46307,114.13c-0.28,1.51 -0.53,3.27 -0.73,5.19c-0.2,1.89 -0.29,3.54 -0.29,4.9c0,5.58 1.37,10.06 4.07,13.31c2.64,3.19 6.86,4.81 12.55,4.81l46.21,0c5.66,0 10,-1.33 12.9,-3.96c2.94,-2.65 4.95,-6.55 6,-11.56l7.65,-36.01c0.19,-0.95 0.34,-1.95 0.43,-3.01c0.1,-1.06 0.14,-2.02 0.14,-2.89c0,-5.83 -1.8,-10.61 -5.34,-14.21c-3.54,-3.59 -9.21,-5.41 -16.83,-5.41l-50.31,0l-3.82,17.93l39.88,0c7.22,0 8.74,3.85 8.74,7.09c0,0.87 -0.06,1.6 -0.18,2.19l-0.5,2.5l-37.32,0c-3.98,0 -7.36,0.34 -10.05,1.02c-2.6,0.65 -4.75,1.7 -6.4,3.11c-1.64,1.42 -2.99,3.36 -4.02,5.77c-1.07,2.5 -2,5.61 -2.78,9.23zm26.84,2.8c0.48,-2.18 1.54,-3.72 3.17,-4.6c1.48,-0.8 3.09,-1.2 4.79,-1.2l22.41,0l-1.71,7.22c-0.56,2.57 -1.43,4.34 -2.65,5.38c-1.24,1.06 -3.12,1.57 -5.75,1.57l-15.15,0c-1.8,0 -3.19,-0.61 -4.13,-1.83c-0.87,-1.12 -1.31,-2.38 -1.31,-3.76c0,-0.77 0.11,-1.71 0.33,-2.78z" fill="#EC1654"/>
     <path id="svg_11" class="st1" d="m923.62307,142.34c6.95,0 12.83,-0.76 17.47,-2.26c4.59,-1.48 8.44,-3.73 11.44,-6.68c3.01,-2.96 5.44,-6.7 7.22,-11.13c1.81,-4.5 3.28,-9.77 4.36,-15.66c0.88,-4.69 1.33,-9.16 1.33,-13.28c0,-4.15 -0.54,-8 -1.59,-11.41c-1.04,-3.36 -2.72,-6.31 -4.98,-8.76c-2.27,-2.45 -5.17,-4.39 -8.63,-5.77c-3.49,-1.39 -7.75,-2.09 -12.67,-2.09l-32.11,0c-5.65,0 -9.97,1.33 -12.82,3.95c-2.89,2.66 -4.89,6.55 -5.93,11.57l-18.44,87.03l26.73,0l5.4,-25.5l23.22,0l0,-0.01zm-12.46,-50.03c0.66,-3.3 1.68,-5.49 3.12,-6.69c1.45,-1.2 3.77,-1.79 7.09,-1.79l5.4,0c4.21,0 7.12,1.11 8.66,3.3c1.44,2.05 2.18,4.64 2.18,7.68c0,1.42 -0.1,3.13 -0.31,5.22c-0.21,2.05 -0.47,3.9 -0.77,5.51c-0.42,1.99 -1.02,4.04 -1.78,6.12c-0.79,2.15 -1.86,4.13 -3.18,5.87c-1.34,1.77 -2.99,3.26 -4.92,4.43c-1.98,1.22 -4.42,1.83 -7.24,1.83l-15.03,0l6.78,-31.48z" fill="#EC1654"/>
    </g>
    <g id="svg_12">
     <g id="svg_13">
      <path id="svg_14" class="st1" d="m143.44307,27.41c2.31,0 3.38,-1.7 2.38,-3.78l-9.55,-19.84c-1,-2.08 -3.71,-3.78 -6.02,-3.78l-67.85,0c-2.31,0 -5.02,1.7 -6.02,3.78l-9.56,19.84c-1,2.08 0.07,3.78 2.38,3.78l94.24,0z" fill="#EC1654"/>
     </g>
     <g id="svg_15">
      <path id="svg_16" class="st1" d="m189.20307,27.41c2.31,0 2.96,-1.43 1.45,-3.18l-18.22,-21.05c-1.51,-1.75 -4.64,-3.18 -6.95,-3.18l-17.75,0c-2.31,0 -3.38,1.7 -2.38,3.78l9.57,19.84c1,2.08 3.71,3.78 6.02,3.78l28.26,0l0,0.01z" fill="#EC1654"/>
     </g>
     <g id="svg_17">
      <path id="svg_18" class="st1" d="m46.30307,3.79c1,-2.08 -0.07,-3.78 -2.37,-3.78l-17.76,0c-2.31,0 -5.44,1.43 -6.95,3.18l-18.22,21.04c-1.51,1.75 -0.86,3.18 1.45,3.18l28.25,0c2.31,0 5.02,-1.7 6.02,-3.78l9.58,-19.84z" fill="#EC1654"/>
     </g>
     <g id="svg_19">
      <path id="svg_20" class="st1" d="m2.30307,35.11c-2.31,0 -3,1.46 -1.53,3.24l77.61,94.37c1.47,1.78 1.88,1.53 0.92,-0.57l-42.68,-93.22c-0.96,-2.1 -3.64,-3.82 -5.95,-3.82l-28.37,0z" fill="#EC1654"/>
     </g>
     <g id="svg_21">
      <path id="svg_22" class="st1" d="m160.99307,35.11c-2.31,0 -4.99,1.72 -5.95,3.82l-42.7,93.22c-0.96,2.1 -0.55,2.36 0.92,0.57l77.63,-94.37c1.47,-1.78 0.78,-3.24 -1.53,-3.24l-28.37,0z" fill="#EC1654"/>
     </g>
     <g id="svg_23">
      <path id="svg_24" class="st1" d="m97.96307,66.4c-2.22,-0.64 -2.23,-1.72 -0.03,-2.41l38.69,-12.11c2.2,-0.69 4.79,-2.97 5.76,-5.07l3.61,-7.88c0.96,-2.1 -0.14,-3.82 -2.45,-3.82l-94.41,0c-2.31,0 -3.41,1.72 -2.45,3.82l15.81,34.52c0.96,2.1 3.59,4.25 5.84,4.77l37.42,8.75c2.25,0.53 2.43,1.85 0.39,2.95l-25.27,13.6c-2.03,1.09 -2.91,3.71 -1.95,5.81l15.66,34.19c0.96,2.1 2.54,2.1 3.5,0l29.45,-64.29c0.96,-2.1 -0.07,-4.34 -2.29,-4.98l-27.28,-7.85z" fill="#EC1654"/>
     </g>
    </g>
   </g>
  </g>
 </g>

</svg>